<svg id="Layer_1" enable-background="new 0 0 508 508" height="512" viewBox="0 0 508 508" width="512" xmlns="http://www.w3.org/2000/svg"><g><g><path d="m492 254c0 140.28-96.452 222.955-236.732 222.955s-239.268-82.675-239.268-222.955c0-103.483 45.884-192.512 134.664-232.099 31.569-14.076 66.539-21.901 103.336-21.901 65.241 0 124.737 24.597 169.72 65.023 51.74 46.498 68.28 113.937 68.28 188.977z" fill="#f8e000"/></g><path d="m417.04 448.734h.024c15.155-12.723 25.035-24.12 25.74-24.838-.011.005-.022.009-.033.014 94.059-104.433 85.256-265.294-19.052-358.886-5.323-4.776-12.258-7.36-19.409-7.36-16.162 0-29.263 13.102-29.263 29.263v356.39c-4.574.642-9.186 1.165-13.835 1.559v-357.53c0-16.162-13.102-29.263-29.263-29.263h-65.145c-16.162 0-29.263 13.102-29.263 29.263v337.161c-4.933-2.164-9.788-4.472-14.551-6.935v-330.226c0-16.162-13.102-29.263-29.263-29.263h-27.245c-18.303 0-28.831-21.701-15.812-36.17-92.148 41.092-153.23 134.006-150.587 238.646 3.432 135.387 112.594 243.946 247.383 247.358 61.218 1.546 121.314-18.731 169.574-59.183zm8.799-82.561c11.626-9.214 28.866-.917 28.866 13.963 0 9.827-7.995 17.822-17.822 17.822-16.644 0-24.406-21.167-11.044-31.785zm-133.108-2.142c11.786-4.756 24.468 4.028 24.468 16.525 0 9.827-7.995 17.822-17.822 17.822s-17.822-7.996-17.822-17.822c-.001-7.156 4.381-13.779 11.176-16.525zm-115.171 23.483c-8.581-7.107-16.677-14.777-24.253-22.937 14.884-7.276 30.667 7.873 24.253 22.937z" fill="#ffc305"/><g><path d="m206.613 446.012v-372.105h-88.204v372.105zm-61.836-72.872c12.835 0 23.24 10.405 23.24 23.24s-10.405 23.24-23.24 23.24-23.24-10.405-23.24-23.24 10.405-23.24 23.24-23.24z" fill="#ff5551"/><path d="m163.372 441.248c-6.679-.046-9.131-8.884-3.466-12.421 8.117-5.067 13.659-14.111 13.526-24.692-.188-15.077-12.329-27.61-27.393-28.26-.166-.007-.331-.013-.496-.017-13.232-.347-23.814-11.082-23.814-24.319v-95.622c0-7.173 5.815-12.988 12.988-12.988h45.496v-28.749h-58.484v-8.825c0-7.173 5.815-12.988 12.988-12.988h45.496v-28.749h-58.484v-89.711h-38.787v367.853c9.261 8.442 19.15 16.205 29.586 23.218h94.085v-23.728h-42.949c-.097-.001-.195-.001-.292-.002zm-36.417-36.742c0-.015.002-.03.002-.044-.923-2.25-1.478-4.691-1.592-7.228-.474-10.581 9.344-19.593 19.593-19.593 10.984 0 19.117 8.977 19.593 19.593.14 3.127-.624 6.115-2.028 8.776-.768 9.124-8.426 16.319-17.746 16.319-9.827-.001-17.822-7.996-17.822-17.823z" fill="#e20a62"/><path d="m121.538 151.881h58.675v28.749h-58.675z" fill="#6ee1ff"/><path d="m121.538 202.443h58.675v28.749h-58.675z" fill="#6ee1ff"/><path d="m109.342 151.881h17.613v28.749h-17.613z" fill="#2896ff"/><path d="m109.342 202.443h17.613v28.749h-17.613z" fill="#2896ff"/><g><path d="m144.777 425.037c-15.801 0-28.657-12.856-28.657-28.657 0-15.802 12.856-28.658 28.657-28.658s28.657 12.856 28.657 28.658c0 15.801-12.855 28.657-28.657 28.657zm0-46.48c-9.827 0-17.822 7.995-17.822 17.823 0 9.827 7.995 17.822 17.822 17.822s17.822-7.995 17.822-17.822c.001-9.828-7.994-17.823-17.822-17.823z" fill="#faf58c"/></g><g><path d="m138.57 368.4c-10.228 2.268-18.418 10.018-21.316 19.997-.962 3.311 1.515 6.624 4.963 6.624h.535c2.328 0 4.308-1.575 4.983-3.803 1.845-6.09 6.861-10.812 13.122-12.225 2.305-.52 3.893-2.644 3.893-5.007v-.52c0-3.26-2.997-5.772-6.18-5.066z" fill="#fff"/></g><path d="m344.836 446.012v-372.105h-86.55v372.105zm-61.836-72.872c12.835 0 23.24 10.405 23.24 23.24s-10.405 23.24-23.24 23.24-23.24-10.405-23.24-23.24 10.405-23.24 23.24-23.24z" fill="#82cd64"/><path d="m301.887 441.249c-.098 0-.195 0-.293-.001-6.679-.046-9.131-8.884-3.466-12.421 8.117-5.067 13.659-14.111 13.526-24.692-.188-15.077-12.329-27.61-27.393-28.26-.166-.007-.331-.013-.496-.017-13.232-.347-23.814-11.082-23.814-24.319v-95.622c0-7.173 5.815-12.988 12.988-12.988h45.496v-28.749h-58.484v-8.825c0-7.173 5.815-12.988 12.988-12.988h45.496v-28.749h-58.484v-89.711h-38.787v391.07h123.671v-23.728zm-36.709-36.743c0-.015.002-.029.002-.044-.923-2.25-1.478-4.691-1.592-7.228-.474-10.581 9.344-19.593 19.593-19.593 10.984 0 19.117 8.977 19.593 19.593.14 3.127-.624 6.115-2.028 8.775-.768 9.124-8.426 16.319-17.746 16.319-9.827 0-17.822-7.995-17.822-17.822z" fill="#269ab1"/><path d="m259.76 151.881h58.675v28.749h-58.675z" fill="#f8e000"/><path d="m259.76 202.443h58.675v28.749h-58.675z" fill="#f8e000"/><path d="m247.565 151.881h17.613v28.749h-17.613z" fill="#ffc305"/><path d="m247.565 202.443h17.613v28.749h-17.613z" fill="#ffc305"/><g><path d="m283 425.037c-15.801 0-28.657-12.856-28.657-28.657 0-15.802 12.856-28.658 28.657-28.658s28.657 12.856 28.657 28.658c0 15.801-12.856 28.657-28.657 28.657zm0-46.48c-9.827 0-17.822 7.995-17.822 17.823 0 9.827 7.995 17.822 17.822 17.822s17.822-7.995 17.822-17.822c0-9.828-7.995-17.823-17.822-17.823z" fill="#faf58c"/></g><g><path d="m276.793 368.4c-10.228 2.268-18.418 10.018-21.316 19.997-.962 3.311 1.515 6.624 4.963 6.624h.535c2.328 0 4.308-1.575 4.983-3.803 1.845-6.09 6.861-10.812 13.122-12.225 2.305-.52 3.893-2.644 3.893-5.007v-.52c-.001-3.26-2.997-5.772-6.18-5.066z" fill="#fff"/></g><path d="m482.342 445.061v-371.573h-88.938v371.573zm-61.836-72.341c12.835 0 23.24 10.405 23.24 23.24s-10.405 23.24-23.24 23.24-23.24-10.405-23.24-23.24 10.405-23.24 23.24-23.24z" fill="#ff8500"/><path d="m439.393 440.83c-.098 0-.195 0-.293-.001-6.679-.046-9.131-8.884-3.466-12.421 8.117-5.067 13.659-14.111 13.526-24.692-.188-15.077-12.329-27.61-27.393-28.26-.166-.007-.331-.013-.496-.017-13.232-.347-23.814-11.082-23.814-24.319v-95.622c0-7.173 5.815-12.988 12.988-12.988h45.496v-28.749h-58.484v-8.825c0-7.173 5.815-12.988 12.988-12.988h45.496v-28.749h-58.484v-89.711h-38.787v391.07h123.671v-23.728zm-36.709-36.744c0-.015.002-.029.002-.044-.923-2.25-1.478-4.691-1.592-7.228-.474-10.581 9.344-19.593 19.593-19.593 10.984 0 19.117 8.977 19.593 19.593.14 3.127-.624 6.115-2.028 8.775-.768 9.124-8.426 16.319-17.746 16.319-9.827.001-17.822-7.995-17.822-17.822z" fill="#fa690f"/><path d="m397.266 151.462h58.675v28.749h-58.675z" fill="#fff"/><path d="m397.266 202.024h58.675v28.749h-58.675z" fill="#fff"/><path d="m385.071 151.462h17.613v28.749h-17.613z" fill="#faf58c"/><path d="m385.071 202.024h17.613v28.749h-17.613z" fill="#faf58c"/><g><path d="m420.506 424.617c-15.801 0-28.657-12.856-28.657-28.657 0-15.802 12.856-28.658 28.657-28.658s28.657 12.856 28.657 28.658-12.856 28.657-28.657 28.657zm0-46.48c-9.827 0-17.822 7.995-17.822 17.823 0 9.827 7.995 17.822 17.822 17.822s17.822-7.995 17.822-17.822-7.995-17.823-17.822-17.823z" fill="#faf58c"/></g><g><path d="m414.299 367.98c-10.228 2.268-18.418 10.018-21.316 19.997-.962 3.311 1.515 6.624 4.963 6.624h.535c2.328 0 4.308-1.575 4.983-3.803 1.845-6.09 6.861-10.812 13.122-12.225 2.305-.52 3.893-2.644 3.893-5.007v-.52c-.001-3.259-2.997-5.771-6.18-5.066z" fill="#fff"/></g></g></g></svg>